<?xml version="1.0" encoding="UTF-8" standalone="no"?>
<!DOCTYPE svg PUBLIC "-//W3C//DTD SVG 1.1//EN" "http://www.w3.org/Graphics/SVG/1.1/DTD/svg11.dtd">
<svg width="100%" height="100%" viewBox="0 0 1400 960" version="1.1" xmlns="http://www.w3.org/2000/svg" xmlns:xlink="http://www.w3.org/1999/xlink" xml:space="preserve" xmlns:serif="http://www.serif.com/" style="fill-rule:evenodd;clip-rule:evenodd;stroke-linejoin:round;stroke-miterlimit:1.41421;">
    <g>
        <g opacity="0.0488039">
            <path d="M1063.76,606.1C1067.29,621.37 1058.31,635.73 1043.06,639.25C1027.8,642.78 1013.44,633.8 1009.92,618.55C1006.4,603.29 1015.37,588.93 1030.62,585.41C1045.88,581.91 1060.24,590.87 1063.76,606.13L1063.76,606.1ZM1098.28,550.88L1121.08,649.6C1123.35,659.47 1117.13,669.4 1107.26,671.7L963.68,704.84C953.8,707.12 943.86,700.91 941.58,691.04L918.78,592.34C916.51,582.44 922.73,572.51 932.6,570.24L930.53,561.26L966.43,552.96L968.5,561.94L986.44,557.8L991.27,537.78L1045.12,525.35L1058.24,541.23L1076.18,537.08C1086.06,534.8 1096,541.01 1098.28,550.88ZM972.3,598.88C970.64,591.7 962.9,586.86 955.73,588.52C948.56,590.18 943.71,597.92 945.37,605.09C947.03,612.26 954.77,617.09 961.94,615.43C969.11,613.77 973.94,606.03 972.3,598.86L972.3,598.88ZM1081.7,601.98C1075.9,576.84 1051.6,561.66 1026.48,567.46C1001.36,573.26 986.18,597.56 991.98,622.69C997.78,647.81 1022.08,662.99 1047.21,657.19C1072.34,651.39 1087.53,627.09 1081.73,601.96L1081.7,601.98Z" style="fill:white;fill-opacity:0.6;"/>
            <path d="M535.6,318.58C531.504,322.061 526.657,324.546 521.44,325.84C502.81,330.48 483.97,319.26 479.36,300.76C474.76,282.26 486.11,263.5 504.74,258.86C508.71,257.86 512.64,257.74 516.49,258.11L488.14,144.43L611.81,113.6L623.44,160.22L600.94,165.82L597.67,152.68L518.97,172.31L543.92,272.39C530.82,276.89 523.09,290.69 526.48,304.29C527.873,309.92 531.069,314.944 535.58,318.59L535.6,318.58ZM607.46,191.88L609.33,199.38C605.49,199.02 601.55,199.15 597.58,200.14C578.95,204.79 567.58,223.54 572.2,242.04C575.88,256.84 588.66,266.97 603.16,268.07C601.063,265.246 599.547,262.034 598.7,258.62C595.1,244.22 603.95,229.64 618.44,226.02C621.54,225.26 624.59,225.16 627.58,225.45L618.53,189.12L607.46,191.88Z" style="fill:rgb(255,252,252);fill-opacity:0.3;"/>
            <path d="M537.75,184.8L559.8,273.22C556.8,272.92 553.74,273.02 550.66,273.8C536.16,277.42 527.33,292 530.92,306.4C534.5,320.78 549.16,329.5 563.64,325.9C578.14,322.3 586.97,307.7 583.38,293.3L561.74,206.5L622.94,191.22L632.01,227.55C629.03,227.25 625.96,227.37 622.88,228.15C608.38,231.75 599.55,246.35 603.13,260.72C606.73,275.12 621.37,283.84 635.86,280.22C650.36,276.62 659.19,262.02 655.6,247.64L633.95,160.82L537.75,184.8ZM1000.1,336.96L952.64,354.23C947.4,356.13 944.88,362.43 947,368.26L977.8,452.86L1003.3,419.62L1044.22,428.67L1013.42,344.07C1011.32,338.25 1005.32,335.07 1000.1,336.97L1000.1,336.96ZM823.76,428.66L753.84,418.83L756.34,401.05L826.24,410.88L823.76,428.66ZM821.26,446.43L751.34,436.61L748.84,454.39L818.76,464.22L821.26,446.45L821.26,446.43ZM863,398.76L848.33,503.3L788.53,548.2L718.63,538.36C708.96,537 702.23,528.11 703.59,518.48L723.17,379.11C724.53,369.49 733.44,362.81 743.1,364.15L847.98,378.89C857.63,380.25 864.36,389.15 863.01,398.77L863,398.76ZM834.1,484.2L846.4,396.8L740.9,381.96L721.26,521.81L773.99,529.23L778.91,494.27C780.26,484.61 789.21,477.89 798.93,479.27L834.09,484.2L834.1,484.2ZM436.16,761.27L407.68,766.81L403.53,745.45C402.83,741.88 398.58,739.02 395.03,739.71L338.06,750.78C334.49,751.48 331.63,755.72 332.32,759.28L336.47,780.64L308,786.2C303.72,787.03 301.42,790.43 302.25,794.7L309.17,830.3L451.57,802.62L444.67,767.02C443.83,762.75 440.43,760.45 436.17,761.28L436.16,761.27ZM393.44,769.57L350.71,777.87L347.95,763.64L390.68,755.34L393.45,769.58L393.44,769.57ZM398.77,835.05L370.29,840.58L367.51,826.33L310.55,837.4L321.62,894.37C322.45,898.63 325.85,900.93 330.12,900.1L458.3,875.18C462.58,874.36 464.88,870.96 464.05,866.68L452.97,809.72L396,820.8L398.78,835.06L398.77,835.05ZM143.43,380.18L16.83,391.25C6.83,392.13 -0.57,400.93 0.33,410.92L11.39,537.52C12.26,547.52 21.06,554.9 31.05,554.02L157.65,542.95C167.65,542.08 175.03,533.28 174.15,523.28L163.08,396.68C162.2,386.68 153.4,379.3 143.4,380.18L143.43,380.18ZM27.18,416.7L73.68,412.64L77.76,459.14L31.26,463.22L27.18,416.72L27.18,416.7ZM81.2,532.08C68.37,533.2 57.04,523.68 55.92,510.86C54.8,498.02 64.3,486.69 77.14,485.56C89.98,484.46 101.31,493.96 102.44,506.79C103.54,519.63 94.04,530.96 81.21,532.09L81.2,532.08ZM102.8,477.48L126.34,428.55L158.02,472.65L102.79,477.47L102.8,477.48ZM921.38,53.38L988.18,100.14L899.24,227.16C890.07,220.74 887.81,208.16 894.14,198.96L894.1,198.93C887.6,207.99 875,210.18 865.85,203.76C856.8,197.43 854.53,185.12 860.52,175.96L860.42,175.86C853.84,184.66 841.48,186.71 832.45,180.38L921.37,53.38L921.38,53.38ZM1006.71,33.48L977.71,13.16C967.28,5.86 952.89,8.4 945.58,18.82L930.73,40L997.53,86.78L1012.37,65.58C1019.67,55.16 1017.13,40.78 1006.71,33.48L1006.71,33.46L1006.71,33.48ZM831.84,209.68L837.84,243.76L871.94,237.76C868.61,218.93 850.66,206.36 831.84,209.69L831.84,209.68ZM1299.94,479.71C1301.41,471.35 1309.4,465.75 1317.76,467.23C1326.13,468.7 1331.72,476.69 1330.26,485.06C1328.76,493.43 1320.79,499.02 1312.42,497.56C1304.06,496.06 1298.47,488.08 1299.94,479.72L1299.94,479.71ZM1397.12,460.38L1375.75,581.65C1373.78,592.82 1363.15,600.27 1351.97,598.3L1190.27,569.78C1179.11,567.81 1171.67,557.18 1173.63,546L1195.03,424.73C1196.99,413.57 1207.63,406.13 1218.8,408.09L1380.5,436.59C1391.66,438.56 1399.1,449.19 1397.14,460.36L1397.12,460.38ZM1376.92,456.82L1215.22,428.32L1201.96,503.54L1250.3,465.76L1298.2,542.46L1317.54,526.59C1327.27,518.59 1341.84,521.16 1348.24,531.99L1360.12,552.09L1376.92,456.83L1376.92,456.82ZM195.7,635.83L193.9,656L173.6,654.23L175.35,634.03L53.5,623.38L51.73,643.58L31.41,641.8L33.19,621.6C21.97,620.62 12.09,628.85 11.11,640L0.5,761.15C-0.47,772.3 7.83,782.13 19.05,783.12L20.82,762.94L41.12,764.71L39.36,784.89L161.26,795.56L163.01,775.36L183.33,777.14L181.57,797.34C192.79,798.31 202.67,790.08 203.65,778.92L214.25,657.8C215.22,646.65 206.92,636.82 195.7,635.84L195.7,635.83ZM45.38,746.83L23.73,744.93L26.5,713.3L48.14,715.18L45.37,746.82L45.38,746.83ZM49.75,696.88L28.1,694.98L30.87,663.35L52.52,665.25L49.75,696.88ZM83.17,736.71L88.42,676.77L132.42,710.82L83.17,736.72L83.17,736.71ZM185.24,759.07L163.6,757.17L166.36,725.54L188.01,727.44L185.25,759.06L185.24,759.07ZM189.61,709.11L167.98,707.21L170.75,675.58L192.39,677.48L189.62,709.11L189.61,709.11ZM1374,669.7C1371.74,667.323 1369.23,665.191 1366.52,663.34L1367.69,648.9L1345.14,642.36L1338.54,655.29C1332.08,655.51 1325.67,657.06 1319.74,659.99L1307.94,651.73L1291.07,668.23L1298.81,680.43C1295.76,686.279 1293.95,692.698 1293.51,699.28L1280.51,705.48L1286.18,728.52L1300.48,727.84C1302.2,730.637 1304.21,733.244 1306.48,735.62C1308.75,737.995 1311.26,740.123 1313.98,741.97L1312.8,756.4L1335.35,762.94L1341.95,750.02C1348.4,749.78 1354.81,748.24 1360.75,745.32L1372.55,753.56L1389.41,737.06L1381.68,724.86C1384.78,718.96 1386.53,712.54 1386.98,706.01L1399.98,699.79L1394.3,676.76L1380,677.44C1378.27,674.638 1376.25,672.024 1373.98,669.64L1374,669.7ZM1357.45,720C1347.62,729.26 1331.97,729 1322.48,719.4C1312.98,709.82 1313.26,694.55 1323.08,685.3C1332.92,676.04 1348.58,676.3 1358.06,685.9C1367.56,695.48 1367.28,710.74 1357.46,720L1357.45,720ZM1280.48,734.9C1278.48,733.904 1276.37,733.132 1274.2,732.6L1271.46,722.62L1255.56,724.12L1254.49,734.49C1250.35,736.37 1246.65,739.115 1243.66,742.54L1234.18,740.07L1227.43,755.51L1235.29,761.67C1234.76,766.375 1235.16,771.139 1236.47,775.69L1229.71,783.24L1238.87,797.2L1247.79,793.03C1249.55,794.45 1251.46,795.674 1253.49,796.68C1255.49,797.68 1257.59,798.45 1259.77,798.98L1262.51,808.98L1278.41,807.48L1279.48,797.11C1283.61,795.227 1287.3,792.482 1290.28,789.06L1299.76,791.53L1306.51,776.09L1298.65,769.92C1299.19,765.17 1298.75,760.42 1297.48,755.92L1304.24,748.37L1295.08,734.42L1286.16,738.59C1284.4,737.172 1282.49,735.949 1280.46,734.94L1280.48,734.9ZM1281.82,773.1C1278,781.74 1268.27,785.47 1260.07,781.44C1251.87,777.41 1248.33,767.14 1252.15,758.5C1255.97,749.85 1265.71,746.12 1273.9,750.15C1282.1,754.18 1285.64,764.45 1281.82,773.09L1281.82,773.1ZM1240.12,692.97C1239.12,692.612 1238.08,692.37 1237.02,692.25L1235.2,687.55L1227.77,689.3L1227.82,694.42C1225.96,695.614 1224.36,697.189 1223.15,699.04L1218.55,698.44L1216.19,706.38L1220.23,708.88C1220.23,711.2 1220.68,713.48 1221.53,715.64L1218.76,719.74L1223.86,725.94L1227.84,723.34C1228.75,723.92 1229.72,724.397 1230.74,724.76C1231.74,725.13 1232.79,725.36 1233.82,725.49L1235.65,730.16L1243.08,728.43L1243.01,723.31C1244.88,722.117 1246.47,720.543 1247.69,718.69L1252.31,719.29L1254.65,711.34L1250.61,708.84C1250.61,706.526 1250.16,704.235 1249.29,702.09L1252.07,697.99L1246.99,691.77L1242.99,694.37C1242.08,693.799 1241.12,693.329 1240.11,692.97L1240.12,692.97ZM1243,711.5C1241.64,715.98 1237.15,718.43 1232.97,716.97C1228.77,715.52 1226.49,710.72 1227.85,706.24C1229.21,701.76 1233.7,699.31 1237.89,700.77C1242.06,702.22 1244.35,707.03 1242.99,711.5L1243,711.5ZM322.2,523.25L297.57,525.85C294.2,526.215 291.722,529.279 292.07,532.65L297.23,581.9C297.595,585.27 300.659,587.748 304.03,587.4L328.66,584.82C332.03,584.455 334.508,581.391 334.16,578.02L329,528.75C328.635,525.38 325.571,522.902 322.2,523.25ZM319.48,583.02L312.64,583.74L312.36,581L319.2,580.28L319.48,583.02ZM328.34,575.17L303.71,577.77L299.27,535.34L323.89,532.74L328.35,575.17L328.34,575.17ZM1067.4,168.67L1092.4,297.37C1095.48,313.17 1110.77,323.47 1126.57,320.41L1255.27,295.41L1269.17,366.91L1334.75,297.71C1347.68,284.059 1353.23,264.966 1349.65,246.51L1324.81,118.64C1321.74,102.84 1306.46,92.54 1290.65,95.6L1090.45,134.5C1074.65,137.58 1064.33,152.87 1067.41,168.67L1067.4,168.67ZM761.94,189.67C750.27,187.2 738.47,196.17 735.59,209.71L725.16,258.76C723.44,266.89 727.71,274.68 734.71,276.16C741.71,277.66 748.75,272.26 750.48,264.14L760.88,215.1L752.48,213.3L742.06,262.35C741.48,265.05 739.12,266.85 736.79,266.35C734.46,265.85 733.04,263.25 733.62,260.55L744.04,211.51C745.77,203.39 752.84,198.01 759.84,199.51C766.84,200.99 771.12,208.78 769.39,216.91L758.84,266.56C755.96,280.11 744.3,288.46 732.64,285.98C720.96,283.5 713.84,270.51 716.71,256.96L721.91,232.44L713.47,230.64L708.27,255.17C704.23,274.13 714.2,292.31 730.54,295.79C746.88,299.26 763.34,286.69 767.38,267.74L777.78,218.69C780.68,205.15 773.58,192.17 761.92,189.69L761.94,189.67ZM164.74,96.4C218.19,102.96 256.37,151.82 249.8,205.28C243.24,258.74 194.38,296.92 140.9,290.35C87.45,283.79 49.28,234.92 55.84,181.45C62.4,128 111.27,89.83 164.74,96.4ZM168.3,72.54C101.17,64.29 40.07,112.04 31.83,179.16C23.59,246.29 71.33,307.38 138.45,315.62C205.58,323.87 266.68,276.12 274.92,209C283.16,141.87 235.42,80.78 168.3,72.54ZM215.96,189.36L167.09,183.36L173.09,134.49L148.65,131.49L142.65,180.35L93.78,174.35L90.78,198.79L139.64,204.79L133.64,253.66L158.07,256.66L164.07,207.79L212.93,213.79L215.93,189.35L215.96,189.36ZM282.71,419.18L308.87,445.32C305.407,448.795 300.696,450.747 295.79,450.74C285.59,450.74 277.29,442.46 277.29,432.24C277.29,427.14 279.37,422.52 282.72,419.17L282.71,419.18ZM363.41,469.08L356.95,475.54L253.62,372.2L260.08,365.75L270.15,367.18C277.05,368.18 285.6,366.08 289.15,362.52L324.65,327.02C346.05,305.62 380.75,305.62 402.15,327.02C423.55,348.42 423.55,383.12 402.15,404.5L366.63,440.03C363.08,443.58 360.98,452.13 361.97,459.03L363.4,469.08L363.41,469.08ZM489.26,577.55C504.64,581.38 520.48,571.03 524.62,554.43L543.37,479.28C547.5,462.68 538.37,446.1 523,442.28C507.6,438.43 491.78,448.78 487.64,465.38L468.9,540.54C464.77,557.14 473.88,573.71 489.27,577.54L489.26,577.55ZM552.42,561.6C544.15,594.82 512.52,615.5 481.72,607.83C450.92,600.15 432.7,567.03 440.99,533.81L413.12,526.88C401.99,571.55 422.92,616.06 460.62,633.08L449.05,679.52L476.91,686.48L488.46,640C529.76,642.68 569.14,613.2 580.26,568.55L552.41,561.6L552.42,561.6ZM606.46,615.23L616.93,700.5C617.76,707.2 623.89,712 630.55,711.2L715.33,700.78C721.99,699.98 726.77,693.82 725.95,687.12L715.48,601.85L606.48,615.23L606.46,615.23ZM656.06,677.88L626.34,681.53L625.54,674.93L655.24,671.27L656.07,677.87L656.06,677.88ZM667.86,664.7L624.91,669.97L624.09,663.37L667.04,658.09L667.84,664.69L667.86,664.7ZM666.24,651.48L623.29,656.76L622.49,650.16L665.42,644.88L666.22,651.48L666.24,651.48ZM710.37,669.54L680.64,673.19L676.99,643.45L706.71,639.8L710.36,669.54L710.37,669.54ZM705.09,626.6L620.86,636.94L619.44,625.38L703.67,615.04L705.09,626.6ZM436.17,-26.64L407.67,-21.11L403.52,-42.48C402.82,-46.04 398.58,-48.91 395.02,-48.21L338.05,-37.14C334.49,-36.44 331.62,-32.19 332.32,-28.64L336.47,-7.27L308,-1.73C303.72,-0.9 301.42,2.51 302.25,6.77L309.17,42.37L451.57,14.7L444.67,-20.9C443.83,-25.18 440.43,-27.47 436.17,-26.64ZM393.44,-18.34L350.71,-10.04L347.95,-24.27L390.68,-32.57L393.45,-18.33L393.44,-18.34ZM398.77,47.13L370.29,52.67L367.51,38.43L310.55,49.5L321.62,106.47C322.45,110.74 325.85,113.03 330.12,112.21L458.3,87.31C462.58,86.47 464.87,83.07 464.05,78.81L452.97,21.8L396,32.9L398.77,47.13ZM921.37,841.28L988.17,888.06L899.24,1015.06C890.07,1008.66 887.81,996.08 894.14,986.86L894.1,986.84C887.6,995.9 875,998.09 865.85,991.67C856.8,985.34 854.53,973.03 860.52,963.87L860.42,963.79C853.84,972.55 841.48,974.61 832.45,968.29L921.37,841.27L921.37,841.28ZM1006.71,821.38L977.71,801.08C967.28,793.78 952.89,796.31 945.58,806.73L930.74,827.93L997.54,874.7L1012.38,853.5C1019.68,843.08 1017.14,828.7 1006.72,821.4L1006.71,821.38ZM831.84,997.6L837.84,1031.67L871.92,1025.67C868.62,1006.84 850.67,994.27 831.85,997.6L831.84,997.6ZM783.84,-5.1L746.8,64.6L732.86,57.2L769.9,-12.5L783.84,-5.08L783.84,-5.1ZM745.72,-34.2L742.02,-27.22C735.96,-15.84 736.15,-2.88 741.18,7.98L759.66,-26.8C763.76,-34.5 773.34,-37.44 781.02,-33.36L794.95,-25.96C802.65,-21.86 805.55,-12.26 801.45,-4.56L782.98,30.19C794.78,28.29 805.63,21.19 811.68,9.81L815.38,2.83C823.6,-12.61 817.78,-31.74 802.38,-39.93L788.45,-47.33C773.05,-55.53 753.93,-49.65 745.72,-34.23L745.72,-34.2ZM714.35,92L728.28,99.42C743.68,107.62 762.8,101.72 771.01,86.3L774.71,79.3C780.77,67.93 780.58,54.97 775.55,44.12L757.06,78.9C752.96,86.6 743.38,89.54 735.7,85.45L721.77,78.05C714.07,73.95 711.17,64.37 715.27,56.65L733.75,21.9C721.95,23.8 711.1,30.88 705.05,42.27L701.33,49.25C693.13,64.69 698.93,83.82 714.33,92.01L714.35,92ZM783.85,782.84L746.8,852.5L732.86,845.1L769.91,775.43L783.85,782.83L783.85,782.84ZM745.72,753.72L742.02,760.7C735.96,772.08 736.15,785.04 741.18,795.9L759.66,761.12C763.76,753.42 773.34,750.48 781.02,754.56L794.95,761.96C802.65,766.06 805.55,775.66 801.45,783.36L782.98,818.12C794.78,816.22 805.63,809.12 811.68,797.75L815.38,790.75C823.6,775.33 817.78,756.19 802.38,748L788.45,740.6C773.05,732.4 753.93,738.28 745.72,753.72ZM714.36,879.92L728.29,887.34C743.69,895.54 762.81,889.66 771.02,874.22L774.72,867.22C780.79,855.85 780.6,842.89 775.57,832.05L757.07,866.81C752.99,874.53 743.41,877.47 735.72,873.38L721.79,865.98C714.11,861.88 711.19,852.3 715.29,844.58L733.77,809.83C721.97,811.73 711.12,818.81 705.07,830.2L701.35,837.17C693.15,852.61 698.95,871.74 714.35,879.93L714.36,879.92Z" style="fill:white;fill-opacity:0.6;"/>
        </g>
    </g>
</svg>
